<svg xmlns="http://www.w3.org/2000/svg" xmlns:xlink="http://www.w3.org/1999/xlink" id="Layer_2" x="0" y="0" version="1.1" viewBox="0 0 128 128" xml:space="preserve" style="enable-background:new 0 0 128 128"><radialGradient id="SVGID_1_" cx="88.195" cy="51.501" r="56.382" gradientTransform="matrix(1.028679e-13 -1 1.8259 1.878217e-13 -5.8393 139.696)" gradientUnits="userSpaceOnUse"><stop offset=".158" style="stop-color:#febc45"/><stop offset=".201" style="stop-color:#f8ae44"/><stop offset=".328" style="stop-color:#e98b40"/><stop offset=".432" style="stop-color:#e0763e"/><stop offset=".5" style="stop-color:#dd6e3d"/><stop offset=".76" style="stop-color:#c05e5d"/><stop offset=".99" style="stop-color:#a95e75"/></radialGradient><path style="fill:url(#SVGID_1_)" d="M116.62,124.26H11.32c-4.15,0-7.52-3.37-7.52-7.52V11.44c0-4.15,3.37-7.52,7.52-7.52h105.3	c4.15,0,7.52,3.37,7.52,7.52v105.3C124.15,120.89,120.78,124.26,116.62,124.26z"/><radialGradient id="SVGID_2_" cx="25.529" cy="113.093" r="140.58" gradientUnits="userSpaceOnUse"><stop offset=".817" style="stop-color:#dd6e3d;stop-opacity:0"/><stop offset=".936" style="stop-color:#b86365;stop-opacity:.6509"/><stop offset="1" style="stop-color:#a95e75"/></radialGradient><path style="fill:url(#SVGID_2_)" d="M116.62,124.26H11.32c-4.15,0-7.52-3.37-7.52-7.52V11.44c0-4.15,3.37-7.52,7.52-7.52h105.3	c4.15,0,7.52,3.37,7.52,7.52v105.3C124.15,120.89,120.78,124.26,116.62,124.26z"/><radialGradient id="SVGID_3_" cx="87.87" cy="113.71" r="112.193" gradientUnits="userSpaceOnUse"><stop offset=".411" style="stop-color:#fd960c"/><stop offset=".61" style="stop-color:#f2811b;stop-opacity:.662"/><stop offset=".833" style="stop-color:#ea7028;stop-opacity:.2833"/><stop offset="1" style="stop-color:#e76a2c;stop-opacity:0"/></radialGradient><path style="fill:url(#SVGID_3_)" d="M116.62,124.26H11.32c-4.15,0-7.52-3.37-7.52-7.52V11.44c0-4.15,3.37-7.52,7.52-7.52h105.3	c4.15,0,7.52,3.37,7.52,7.52v105.3C124.15,120.89,120.78,124.26,116.62,124.26z"/><circle style="fill:#fef7b2" cx="91.87" cy="49.17" r="13.26"/><polygon style="fill:#d17757" points="121.3 62.39 102.3 62.39 102.3 84.25 60.19 84.25 60.19 18.84 28.65 18.84 28.65 84.25 24.17 84.25 24.17 49.13 12.34 49.13 12.34 91.78 21.84 91.78 21.84 117.22 118.97 117.22 118.97 106.11 121.3 106.11"/><rect style="fill:#3f737b" width="2.37" height="7.59" x="32.41" y="25.13"/><rect style="fill:#3f737b" width="2.47" height="7.59" x="37.46" y="25.13"/><polygon style="fill:#3f737b" points="45.27 25.13 42.85 25.13 42.85 32.72 45.21 32.7"/><g><polygon style="fill:#ffe066" points="50.44 25.13 47.84 25.14 47.91 32.72 50.42 32.72"/><rect style="fill:#ffe066" width="2.37" height="7.59" x="32.41" y="25.13"/><rect style="fill:#ffe066" width="2.47" height="7.59" x="37.46" y="25.13"/><polygon style="fill:#ffe066" points="45.31 25.13 42.85 25.13 42.85 32.72 45.28 32.7"/><polygon style="fill:#ffe066" points="50.44 37.13 47.84 37.14 47.91 44.72 50.42 44.72"/><rect style="fill:#ffe066" width="2.37" height="7.59" x="32.41" y="37.13"/><rect style="fill:#ffe066" width="2.47" height="7.59" x="37.46" y="37.13"/><polygon style="fill:#ffe066" points="45.31 37.13 42.85 37.13 42.85 44.72 45.28 44.7"/><rect style="fill:#ffe066" width="2.37" height="7.59" x="32.41" y="49.13"/><rect style="fill:#ffe066" width="2.47" height="7.59" x="37.46" y="49.13"/><polygon style="fill:#ffe066" points="45.31 49.13 42.85 49.13 42.85 56.72 45.28 56.7"/><polygon style="fill:#ffe066" points="53.36 25.13 53.35 32.72 55.91 32.72 55.91 25.13"/></g><g><rect style="fill:#ffb65a" width="2.88" height="3.94" x="105.55" y="81.2"/><rect style="fill:#ffb65a" width="2.88" height="3.94" x="111.3" y="81.2"/><rect style="fill:#ffc55c" width="2.88" height="3.94" x="105.55" y="73.83"/><rect style="fill:#ffc55c" width="2.88" height="3.94" x="111.3" y="73.83"/><rect style="fill:#ffd360" width="2.88" height="3.94" x="105.55" y="66.83"/><rect style="fill:#ffd360" width="2.88" height="3.94" x="111.3" y="66.83"/></g><radialGradient id="SVGID_4_" cx="56.989" cy="23.279" r="100.394" gradientUnits="userSpaceOnUse"><stop offset=".51" style="stop-color:#911f4e"/><stop offset=".934" style="stop-color:#6d0c36"/></radialGradient><path style="fill:url(#SVGID_4_)" d="M115,49.4c-0.36,0.73,0,42.7,0,42.7H99.13V68.1h-5.11v-7.67h-4.53v-6.51h-8.16v6.84h-5.19	v7.17h-5.36v34.95h-5.04v-39h2.35v-7.44h-2.35V41.03h-2.65l-3.61-11.16h-7.11L48.8,41.03h-2.79v15.41h-2.48v7.44h2.48v39h-7.18	V67.83H17.19V28.47c0,0-13.35-0.09-13.39-0.05v88.32c0,4.15,3.37,7.52,7.52,7.52h105.3c4.15,0,7.52-3.37,7.52-7.52V49.4H115z"/><g><rect style="fill:#fc7143" width="29.97" height="2.35" x="5.71" y="116.21"/><rect style="fill:#fc7444" width="29.97" height="2.35" x="5.71" y="107.86"/><rect style="fill:#fc7c47" width="29.97" height="2.35" x="5.71" y="99.21"/><rect style="fill:#fd894a" width="29.97" height="2.35" x="5.71" y="90.86"/><rect style="fill:#fda152" width="29.97" height="2.35" x="5.71" y="81.21"/><rect style="fill:#fcb95a" width="29.97" height="2.35" x="5.71" y="72.86"/></g><g><rect style="fill:#fedc61" width="1.76" height="3.7" x="5.71" y="63.32"/><rect style="fill:#fedc61" width="1.76" height="3.7" x="11.71" y="63.32"/><rect style="fill:#fedc61" width="1.76" height="3.7" x="5.71" y="55.89"/><rect style="fill:#fedc61" width="1.76" height="3.7" x="11.71" y="55.89"/><rect style="fill:#fedc61" width="1.76" height="3.7" x="5.71" y="48.46"/><rect style="fill:#fedc61" width="1.76" height="3.7" x="11.71" y="48.46"/><rect style="fill:#fedc61" width="1.76" height="3.7" x="5.71" y="41.03"/><rect style="fill:#fedc61" width="1.76" height="3.7" x="11.71" y="41.03"/><rect style="fill:#fedc61" width="1.76" height="3.7" x="5.71" y="33.59"/><rect style="fill:#fedc61" width="1.76" height="3.7" x="11.71" y="33.59"/></g><g><rect style="fill:#fece60" width="2.27" height="4.76" x="49.8" y="64.51"/><rect style="fill:#fece60" width="2.27" height="4.76" x="55.18" y="64.51"/><rect style="fill:#fece60" width="2.27" height="4.76" x="60.36" y="64.51"/></g><rect style="fill:#fe7a47" width="2.27" height="4.76" x="49.8" y="97.7"/><rect style="fill:#fe7a47" width="2.27" height="4.76" x="55.18" y="97.7"/><rect style="fill:#fe7a47" width="2.27" height="4.76" x="60.36" y="97.7"/><g><rect style="fill:#fcb757" width="2.27" height="4.76" x="49.8" y="73.51"/><rect style="fill:#fcb757" width="2.27" height="4.76" x="55.18" y="73.51"/><rect style="fill:#fcb757" width="2.27" height="4.76" x="60.36" y="73.51"/></g><g><rect style="fill:#fe9c51" width="2.27" height="4.76" x="49.8" y="82.51"/><rect style="fill:#fe9c51" width="2.27" height="4.76" x="55.18" y="82.51"/><rect style="fill:#fe9c51" width="2.27" height="4.76" x="60.36" y="82.51"/></g><path style="fill:#fdcb61" d="M54.01,53.96h4.66v-6.92c0,0,0.17-2.6-2.35-2.66c-2.37-0.06-2.4,2.6-2.4,2.6S54.07,53.96,54.01,53.96	z"/><rect style="fill:#ffcf62" width="2.27" height="9.69" x="79.85" y="64.16"/><rect style="fill:#ffcf62" width="2.27" height="9.69" x="88.36" y="64.16"/><rect style="fill:#ffcf62" width="2.27" height="9.69" x="84.15" y="64.16"/><g><rect style="fill:#feb359" width="2.27" height="3.09" x="76.37" y="77.58"/><rect style="fill:#feb359" width="2.27" height="3.09" x="84.19" y="77.58"/><rect style="fill:#feb359" width="2.27" height="3.09" x="92.01" y="77.58"/></g><g><rect style="fill:#ff9a4f" width="2.27" height="3.09" x="76.37" y="87.58"/><rect style="fill:#ff9a4f" width="2.27" height="3.09" x="84.19" y="87.58"/><rect style="fill:#ff9a4f" width="2.27" height="3.09" x="92.01" y="87.58"/></g><g><rect style="fill:#ff844b" width="2.27" height="3.09" x="76.37" y="97.03"/><rect style="fill:#ff844b" width="2.27" height="3.09" x="84.19" y="97.03"/><rect style="fill:#ff844b" width="2.27" height="3.09" x="92.01" y="97.03"/></g><g><rect style="fill:#ff7942" width="2.27" height="3.09" x="76.37" y="107.03"/><rect style="fill:#ff7942" width="2.27" height="3.09" x="84.19" y="107.03"/><rect style="fill:#ff7942" width="2.27" height="3.09" x="92.01" y="107.03"/></g><g><rect style="fill:#fc7544" width="2.27" height="3.09" x="76.37" y="116.5"/><rect style="fill:#fc7544" width="2.27" height="3.09" x="84.19" y="116.5"/><rect style="fill:#fc7544" width="2.27" height="3.09" x="92.01" y="116.5"/></g><g><rect style="fill:#fff6b2" width="2" height="18.65" x="23.14" y="49.17" transform="matrix(1 -3.167772e-03 3.167772e-03 1 -0.1852 0.0768)"/></g><g><rect style="fill:#fff6b2" width="2" height="39.39" x="16.17" y="28.46" transform="matrix(1 -1.487503e-03 1.487503e-03 1 -0.0716 0.0256)"/></g><g><rect style="fill:#fff6b2" width="2" height="11.86" x="107.23" y="56.44" transform="matrix(2.964414e-03 -1 1 2.964414e-03 45.5461 170.4147)"/></g><g><polygon style="fill:#fff6b2" points="99.13 93.11 99.12 91.11 114 91.1 114 48.4 124.16 48.41 124.15 50.41 116 50.4 116 93.1"/></g><g><rect style="fill:#fff6b2" width="5.11" height="2" x="94.02" y="67.1"/></g><g><rect style="fill:#fff6b2" width="5.19" height="2" x="76.12" y="59.76"/></g><g><rect style="fill:#fff6b2" width="5.36" height="2" x="70.77" y="66.93"/></g><g><polygon style="fill:#fff6b2" points="67.72 102.88 65.72 102.88 65.72 62.88 68.07 62.88 68.07 57.44 65.72 57.44 65.72 42.03 63.34 42.03 59.46 30.03 59.49 18.85 61.49 18.85 61.46 29.71 61.71 30.45 64.8 40.03 67.72 40.03 67.72 55.44 70.07 55.44 70.07 64.88 67.72 64.88"/></g><radialGradient id="SVGID_5_" cx="91.818" cy="49.529" r="22.854" gradientTransform="matrix(0.0364 -1.3108 1.1462 0.0376 31.6056 168.0452)" gradientUnits="userSpaceOnUse"><stop offset=".198" style="stop-color:#fff6b2"/><stop offset=".767" style="stop-color:#fff6b2;stop-opacity:0"/></radialGradient><ellipse style="opacity:.63;fill:url(#SVGID_5_)" cx="92.29" cy="49.46" rx="28.37" ry="30.07"/></svg>