<svg xmlns="http://www.w3.org/2000/svg" xmlns:xlink="http://www.w3.org/1999/xlink" id="Layer_1" x="0" y="0" version="1.1" viewBox="0 0 128 128" xml:space="preserve" style="enable-background:new 0 0 128 128"><g id="图层_1"><g><polygon style="fill:#e1f5fe" points="4.01 47.94 21.49 21.43 35.03 36.9"/><polygon style="fill:#81d4fa" points="44.11 68.26 4.01 47.94 35.03 36.9"/><polygon style="fill:#64b5f6" points="63.94 43.06 35.03 36.9 44.11 68.26"/><polygon style="fill:#0288d1" points="123.87 47.94 106.39 21.43 92.85 36.9"/><polygon style="fill:#81d4fa" points="83.77 68.26 123.87 47.94 92.85 36.9"/><polygon style="fill:#e1f5fe" points="63.94 43.06 92.85 36.9 83.77 68.26"/><polygon style="fill:#b2ebf2" points="83.77 68.26 63.94 43.06 44.11 68.26"/><polygon style="fill:#b3e5fc" points="43 10.06 84.88 10.06 106.39 21.43 92.85 36.9 63.94 43.06 35.03 36.9 21.49 21.43"/><polygon style="fill:#1e88e5" points="63.94 117.27 4.01 47.94 44.11 68.26"/><polygon style="fill:#b3e5fc" points="63.94 117.27 123.87 47.94 83.77 68.26"/><polygon style="fill:#e1f5fe" points="83.77 68.26 83.77 68.26 63.94 117.27 44.11 68.26"/></g></g></svg>