<svg xmlns="http://www.w3.org/2000/svg" xmlns:xlink="http://www.w3.org/1999/xlink" id="Layer_2" x="0" y="0" version="1.1" viewBox="0 0 128 128" xml:space="preserve" style="enable-background:new 0 0 128 128"><g><g><g><path style="fill:#8b5738" d="M31.13,110.55c0-4.3,6.01-19.49,6.01-19.49c5.79-1.79,47.6-0.27,53.97-0.27 c0,0,5.76,12.33,5.76,19.76S79.19,124,64.06,124S31.13,117.98,31.13,110.55z"/><ellipse style="fill:#ffb17a" cx="64.06" cy="93.5" rx="27.05" ry="11.75"/></g><g><g><path style="fill:#cc8552" d="M38.67,106.15c3.02,1.72,7.8,1.59,11.51,2.26c4.72,0.86,7.39,4.46,16.49,4.3 c3.25-0.06,10.83-0.43,10.41-0.42c-0.26-0.53-1.74-1.04-4.62-1.49c-2.64-0.42-4.54-0.38-7.6-0.38c-2.34,0-5.55-0.7-8.79-2.48 c-1.48-0.81-3.78-1.71-6.03-2.17c-3.46-0.71-5.87,0.04-10.7-2.25c-2.31-1.09-4.18-3.35-4.62-5.98l-1.14,3.28 C35.08,103.57,36.45,104.89,38.67,106.15z"/></g><g><path style="fill:#cc8552" d="M88.44,103.46c-7.74,4.92-14.28,4.37-14.28,4.37c-0.55,0.36,3.96,1.33,7.31,0.77 c6.58-1.1,10.58-4.4,13.18-8.82c-0.36-1.12-1.15-3.24-1.15-3.24C92.75,98.35,91.88,101.27,88.44,103.46z"/></g><g><path style="fill:#a86d44" d="M74.51,117.42c-4.28,0.78-8.38-0.55-12.59-1.54c-5.77-1.35-16.61-1.16-16.61-1.16 c-0.65,0.32,5.11,2.41,7.91,2.65c2.55,0.22,5.25,0,7.67,0.99c3.41,1.39,6.71,2.09,10.01,2.09c6.27,0,14.46-3.78,16.41-8.69 c0,0-3.58,2.1-6.36,3.51C78.93,116.3,76.75,117.02,74.51,117.42z"/></g><path style="fill:#a86d44" d="M35.82,111.48c0.85,1.36,1.72,2.62,2.86,3.75c1.93,1.92,4.37,3.03,5.94,2.75 c0,0-5.56-4.49-4.97-5.66c0.3-0.6,11.84,0.35,11.84,0.35s-3.5-1.84-6.91-2.5c-2.21-0.43-6.25,0.43-9.93-2.16 c-2.03-1.43-2.34-3.15-2.34-3.15s-0.73,2.49-0.88,3.44C33.56,110.53,35.54,111.03,35.82,111.48z"/><g><path style="fill:#a86d44" d="M94.3,106.54c-2.02,1.81-5.21,5.47-5.21,7.36c0,0,3.58-3.47,5.99-5.06 c0.6-0.39,1.03-0.89,1.5-1.42c0,0-0.24-1.79-0.62-3.06C95.81,105.21,95.2,105.74,94.3,106.54z"/></g></g></g><g><g><g><radialGradient id="SVGID_1_" cx="77.121" cy="66.694" r="76.184" gradientTransform="matrix(0.9979 -0.065 0.065 0.9979 -1.4539 -39.5353)" gradientUnits="userSpaceOnUse"><stop offset=".104" style="stop-color:#ce93d8"/><stop offset="1" style="stop-color:#ab47bc"/></radialGradient><circle style="fill:url(#SVGID_1_)" cx="64" cy="52.76" r="48.76"/><radialGradient id="SVGID_2_" cx="53.349" cy="46.135" r="69.389" gradientUnits="userSpaceOnUse"><stop offset=".28" style="stop-color:#81d4fa;stop-opacity:0"/><stop offset=".964" style="stop-color:#81d4fa;stop-opacity:.9"/></radialGradient><circle style="fill:url(#SVGID_2_)" cx="64" cy="52.76" r="48.76"/><linearGradient id="SVGID_3_" x1="74.69" x2="35.942" y1="10.651" y2="111.007" gradientUnits="userSpaceOnUse"><stop offset="0" style="stop-color:#673ab7"/><stop offset=".937" style="stop-color:#673ab7;stop-opacity:0"/></linearGradient><path style="opacity:.7;fill:url(#SVGID_3_)" d="M45.91,22.37c4.54,0.39,13.84,3.79,7.07,12.51 C48.53,40.61,42.97,45.94,41,50.55c-5.69,13.33,8.57,18.77,13,20.16c3.84,1.21,11.24,3.91,13.32,7.36 C75.35,91.37,50.93,95,50.93,95s17.97,6.55,32.77-3.46c5.6-3.79,10.53-12.61,5.71-20.55c-2.34-3.85-8.79-7.32-10.37-8.56 c-6.76-5.34-10.93-10.86-7.57-17.05c1.36-2.5,4.2-3.8,6.95-4.56c7.7-2.13,17.31-1.75,19.82-11.26 C100.41,21.36,84.57,3.04,60,6.02c-10.2,1.23-19.38,5.5-26.89,12.52C19.25,31.51,20.45,42.24,20.45,42.24 S29.48,20.94,45.91,22.37z"/><linearGradient id="SVGID_4_" x1="80.878" x2="80.878" y1="24.934" y2="108.077" gradientUnits="userSpaceOnUse"><stop offset=".235" style="stop-color:#1d44b3"/><stop offset=".884" style="stop-color:#2044b3;stop-opacity:.074"/><stop offset=".936" style="stop-color:#2144b3;stop-opacity:0"/></linearGradient><path style="opacity:.39;fill:url(#SVGID_4_)" d="M99.77,24.22c-3.48-5.06-8.29-9.08-13.36-12.55 c-8.09-5.53-18.55-5.98-18.55-5.98c12.84,6.14,11.4,14.28,7.21,20.1c-5.1,7.09-15.33,11.88-18,20.51 c-1.56,5.04-0.6,10.34,4.31,13.56s22.58,11.77,23.19,21.89c0.46,7.62-5.6,12.42-5.6,12.42c7.09-1.53,22.01-11.97,17.59-22.71 c-2.14-5.2-11.87-8.65-6.97-14.58c1.82-2.21,14.53-3.39,15.72-16.25C105.86,34.62,102.62,28.36,99.77,24.22z"/></g><linearGradient id="SVGID_5_" x1="-2575.355" x2="-2575.355" y1="437.519" y2="471.206" gradientTransform="matrix(-0.9658 0.2591 0.2591 0.9658 -2567.8049 261.1978)" gradientUnits="userSpaceOnUse"><stop offset=".227" style="stop-color:#fff"/><stop offset="1" style="stop-color:#fff;stop-opacity:0"/></linearGradient><path style="opacity:.85;fill:url(#SVGID_5_)" d="M24.71,61.66c0,0-7.3-19.36,7.69-37.29c12.35-14.78,23.5-8.8,21.78-2.5 c-1.73,6.3-7.1,8.24-15.19,14.57C28.3,44.8,24.71,61.66,24.71,61.66z"/></g><g><linearGradient id="SVGID_6_" x1="85.871" x2="85.871" y1="28.96" y2="52.387" gradientUnits="userSpaceOnUse"><stop offset=".261" style="stop-color:#fff"/><stop offset="1" style="stop-color:#fff;stop-opacity:0"/></linearGradient><path style="fill:url(#SVGID_6_)" d="M92.96,34.77c-1.95-0.97-3.51-2.19-4.19-4.26l-2.89-9.57l-2.89,9.57 c-0.68,2.06-2.25,3.29-4.19,4.26l-4.83,2.09l4.97,2.06c1.95,0.97,3.37,2.3,4.06,4.36l2.89,9.49l2.89-9.49 c0.68-2.06,2.11-3.39,4.06-4.36l4.97-2.06L92.96,34.77z"/><linearGradient id="SVGID_7_" x1="76.221" x2="76.221" y1="58.161" y2="85.231" gradientUnits="userSpaceOnUse"><stop offset="0" style="stop-color:#fff"/><stop offset="1" style="stop-color:#fff;stop-opacity:0"/></linearGradient><path style="fill:url(#SVGID_7_)" d="M83.31,69.37c-1.95-0.97-3.51-2.19-4.19-4.26l-2.89-9.57l-2.89,9.57 c-0.68,2.06-2.25,3.29-4.19,4.26l-4.83,2.09l4.97,2.06c1.95,0.97,3.37,2.3,4.06,4.36l2.89,9.49l2.89-9.49 c0.68-2.06,2.11-3.39,4.06-4.36l4.97-2.06L83.31,69.37z"/><path style="fill:#fff" d="M106.34,53.97c-1.47-0.73-2.65-1.66-3.17-3.21l-2.18-7.23l-2.18,7.23 c-0.52,1.56-1.7,2.48-3.17,3.21l-3.64,1.58l3.75,1.56c1.47,0.73,2.55,1.73,3.06,3.29l2.18,7.16l2.18-7.16 c0.52-1.56,1.59-2.56,3.06-3.29l3.75-1.56L106.34,53.97z"/></g></g></g></svg>